<svg xmlns="http://www.w3.org/2000/svg" width="2400" height="1350" viewBox="0 0 2400 1350" role="img" aria-label="Topographic map with glowing ownership cells">
  <defs>
    <linearGradient id="g0" x1="0" y1="0" x2="1" y2="1">
      <stop offset="0" stop-color="#05070c"/>
      <stop offset="1" stop-color="#0b1020"/>
    </linearGradient>
    <radialGradient id="goldGlow" cx="30%" cy="24%" r="70%">
      <stop offset="0" stop-color="rgba(212,175,55,.26)"/>
      <stop offset="0.55" stop-color="rgba(212,175,55,.08)"/>
      <stop offset="1" stop-color="rgba(212,175,55,0)"/>
    </radialGradient>
    <radialGradient id="blueGlow" cx="80%" cy="18%" r="70%">
      <stop offset="0" stop-color="rgba(120,180,255,.10)"/>
      <stop offset="1" stop-color="rgba(120,180,255,0)"/>
    </radialGradient>
    <filter id="blur" x="-20%" y="-20%" width="140%" height="140%">
      <feGaussianBlur stdDeviation="8"/>
    </filter>
  </defs>

  <rect width="2400" height="1350" fill="url(#g0)"/>
  <rect width="2400" height="1350" fill="url(#goldGlow)"/>
  <rect width="2400" height="1350" fill="url(#blueGlow)"/>

  <g opacity="0.8"><path d="M 374.2 976.0 Q 259.6 1177.6 66.9 1312.6" stroke="rgba(243,210,122,0.071)" stroke-width="2.13" fill="none"/><path d="M -20.8 78.9 Q 398.9 76.6 1187.0 -44.7" stroke="rgba(243,210,122,0.093)" stroke-width="1.67" fill="none"/><path d="M 1488.4 661.6 Q 1787.4 795.3 2352.2 1286.3" stroke="rgba(243,210,122,0.089)" stroke-width="1.44" fill="none"/><path d="M 678.2 575.0 Q 761.7 796.7 927.1 660.8" stroke="rgba(243,210,122,0.074)" stroke-width="1.77" fill="none"/><path d="M -189.8 695.9 Q 176.6 654.7 1238.2 819.4" stroke="rgba(243,210,122,0.077)" stroke-width="1.78" fill="none"/><path d="M 1717.9 1127.0 Q 1767.1 673.5 2028.8 544.8" stroke="rgba(243,210,122,0.106)" stroke-width="1.23" fill="none"/><path d="M -176.1 96.4 Q -234.4 7.0 444.8 -33.5" stroke="rgba(243,210,122,0.137)" stroke-width="1.75" fill="none"/><path d="M 2258.1 664.7 Q 1514.6 768.6 1042.1 1097.8" stroke="rgba(243,210,122,0.111)" stroke-width="2.06" fill="none"/><path d="M 607.6 1209.3 Q 985.9 1175.6 1984.9 1030.8" stroke="rgba(243,210,122,0.074)" stroke-width="1.03" fill="none"/><path d="M 2382.5 637.3 Q 2302.4 388.5 1657.3 541.7" stroke="rgba(243,210,122,0.131)" stroke-width="2.12" fill="none"/><path d="M 1231.6 674.9 Q 641.9 781.1 8.9 588.6" stroke="rgba(243,210,122,0.113)" stroke-width="1.71" fill="none"/><path d="M 1141.5 242.4 Q 690.5 645.5 -146.2 1315.6" stroke="rgba(243,210,122,0.074)" stroke-width="1.18" fill="none"/><path d="M 2171.2 353.1 Q 2413.0 679.3 2514.0 692.7" stroke="rgba(243,210,122,0.135)" stroke-width="1.14" fill="none"/><path d="M 496.3 550.8 Q 350.4 159.3 915.6 -2.4" stroke="rgba(243,210,122,0.079)" stroke-width="2.19" fill="none"/></g>
  <g><circle cx="1148.9" cy="308.3" r="5.1" fill="rgba(212,175,55,0.139)"/><circle cx="1195.8" cy="333.5" r="4.6" fill="rgba(212,175,55,0.131)"/><circle cx="232.7" cy="1041.0" r="2.6" fill="rgba(212,175,55,0.103)"/><circle cx="184.8" cy="412.5" r="2.6" fill="rgba(212,175,55,0.064)"/><circle cx="2103.5" cy="125.1" r="3.3" fill="rgba(212,175,55,0.139)"/><circle cx="1349.7" cy="1075.6" r="3.7" fill="rgba(212,175,55,0.050)"/><circle cx="1513.7" cy="1324.1" r="2.9" fill="rgba(212,175,55,0.084)"/><circle cx="236.7" cy="153.3" r="2.8" fill="rgba(212,175,55,0.072)"/><circle cx="170.4" cy="593.0" r="4.8" fill="rgba(212,175,55,0.102)"/><circle cx="1875.4" cy="794.9" r="3.1" fill="rgba(212,175,55,0.061)"/><circle cx="267.3" cy="958.0" r="2.2" fill="rgba(212,175,55,0.100)"/><circle cx="2167.1" cy="1246.3" r="3.9" fill="rgba(212,175,55,0.090)"/><circle cx="1194.0" cy="309.4" r="2.5" fill="rgba(212,175,55,0.127)"/><circle cx="1919.0" cy="710.9" r="5.6" fill="rgba(212,175,55,0.111)"/><circle cx="1328.0" cy="1156.8" r="5.5" fill="rgba(212,175,55,0.058)"/><circle cx="2167.8" cy="531.9" r="2.3" fill="rgba(212,175,55,0.058)"/><circle cx="642.3" cy="802.9" r="5.2" fill="rgba(212,175,55,0.056)"/><circle cx="7.9" cy="1192.8" r="2.0" fill="rgba(212,175,55,0.090)"/><circle cx="676.4" cy="119.1" r="5.5" fill="rgba(212,175,55,0.129)"/><circle cx="1629.4" cy="857.2" r="2.9" fill="rgba(212,175,55,0.137)"/><circle cx="1217.2" cy="430.2" r="4.3" fill="rgba(212,175,55,0.113)"/><circle cx="356.9" cy="823.3" r="4.6" fill="rgba(212,175,55,0.116)"/><circle cx="1893.7" cy="293.8" r="4.1" fill="rgba(212,175,55,0.080)"/><circle cx="1678.2" cy="269.8" r="4.4" fill="rgba(212,175,55,0.094)"/><circle cx="276.3" cy="1113.5" r="4.6" fill="rgba(212,175,55,0.121)"/><circle cx="646.5" cy="738.2" r="2.1" fill="rgba(212,175,55,0.059)"/><circle cx="27.6" cy="65.7" r="2.4" fill="rgba(212,175,55,0.093)"/><circle cx="514.4" cy="382.6" r="5.9" fill="rgba(212,175,55,0.066)"/><circle cx="1542.7" cy="658.0" r="3.5" fill="rgba(212,175,55,0.111)"/><circle cx="2083.6" cy="1085.7" r="2.4" fill="rgba(212,175,55,0.116)"/><circle cx="857.0" cy="376.0" r="5.5" fill="rgba(212,175,55,0.115)"/><circle cx="667.9" cy="372.3" r="5.9" fill="rgba(212,175,55,0.051)"/><circle cx="936.6" cy="952.6" r="5.9" fill="rgba(212,175,55,0.076)"/><circle cx="1990.6" cy="795.1" r="3.2" fill="rgba(212,175,55,0.122)"/><circle cx="947.6" cy="614.6" r="2.7" fill="rgba(212,175,55,0.119)"/><circle cx="859.3" cy="1244.5" r="2.6" fill="rgba(212,175,55,0.112)"/><circle cx="1054.1" cy="222.5" r="3.9" fill="rgba(212,175,55,0.079)"/><circle cx="1547.5" cy="251.6" r="2.6" fill="rgba(212,175,55,0.105)"/></g>

  <g filter="url(#blur)" opacity="0.9">
    <circle cx="1752.0" cy="621.0" r="210" fill="rgba(255,255,255,.04)"/>
  </g>

  <g><circle cx="1752.0" cy="621.0" r="160" fill="none" stroke="rgba(212,175,55,0.180)" stroke-width="1.2"/><circle cx="1752.0" cy="621.0" r="215" fill="none" stroke="rgba(212,175,55,0.150)" stroke-width="1.2"/><circle cx="1752.0" cy="621.0" r="270" fill="none" stroke="rgba(212,175,55,0.120)" stroke-width="1.2"/><circle cx="1752.0" cy="621.0" r="325" fill="none" stroke="rgba(212,175,55,0.090)" stroke-width="1.2"/></g>

  <g>
    <rect x="1562.0" y="555.0" width="380" height="132" rx="26" fill="rgba(255,255,255,.05)" stroke="rgba(255,255,255,.10)"/>
    <text x="1752.0" y="613.0" text-anchor="middle" font-family="ui-sans-serif,system-ui" font-size="50" fill="rgba(245,247,255,.92)" letter-spacing="2">W3</text>
    <text x="1752.0" y="655.0" text-anchor="middle" font-family="ui-sans-serif,system-ui" font-size="22" fill="rgba(245,247,255,.60)" letter-spacing="1">w3.land</text>
  </g>

  <g opacity="0.9">
    <circle cx="432.0" cy="1053.0" r="280" fill="rgba(212,175,55,.06)"/>
    <circle cx="432.0" cy="1053.0" r="279" fill="none" stroke="rgba(255,255,255,.06)"/>
  </g>
</svg>